<?xml version="1.0" standalone="no"?>
<!DOCTYPE svg PUBLIC "-//W3C//DTD SVG 20010904//EN"
 "http://www.w3.org/TR/2001/REC-SVG-20010904/DTD/svg10.dtd">
<svg version="1.0" xmlns="http://www.w3.org/2000/svg"
 width="206.000000pt" height="206.000000pt" viewBox="0 0 206.000000 206.000000"
 preserveAspectRatio="xMidYMid meet">
<metadata>
Created by potrace 1.11, written by Peter Selinger 2001-2013
</metadata>
<g transform="translate(0.000000,206.000000) scale(0.100000,-0.100000)"
fill="#000000" stroke="none">
<path d="M555 1716 c-234 -54 -420 -214 -508 -436 -72 -184 -60 -389 35 -574
82 -160 261 -304 438 -352 90 -24 272 -25 360 0 258 71 455 278 508 534 l17
82 312 0 c311 0 312 0 327 22 21 30 20 61 -2 81 -16 15 -54 17 -329 17 l-310
0 -7 51 c-11 78 -60 202 -111 278 -86 130 -217 228 -370 277 -99 32 -267 41
-360 20z m280 -200 c113 -30 231 -116 294 -214 34 -53 71 -152 71 -189 0 -23
-1 -23 -114 -23 l-114 0 -16 40 c-71 179 -310 227 -446 90 -86 -85 -104 -200
-49 -309 53 -105 150 -159 267 -148 101 9 181 66 222 160 l21 47 116 0 116 0
-7 -46 c-14 -107 -114 -251 -222 -320 -109 -70 -242 -95 -364 -70 -250 52
-410 246 -410 496 0 223 127 402 340 477 76 27 214 31 295 9z"/>
</g>
</svg>
