<svg fill="none" xmlns="http://www.w3.org/2000/svg" viewBox="0 0 1046 126">
  <rect x="862" y="2" width="182" height="121" rx="10" fill="#C74FFF"/>
  <path d="M903.054 51.092c0-2.652.442-4.914 1.326-6.786.936-1.924 2.184-3.484 3.744-4.68 1.56-1.248 3.38-2.158 5.46-2.73 2.132-.572 4.394-.858 6.786-.858 3.848 0 6.682.52 8.502 1.56 1.82.988 2.73 2.704 2.73 5.148 0 1.04-.234 1.976-.702 2.808-.416.832-.884 1.456-1.404 1.872a27.588 27.588 0 00-3.12-.624c-1.04-.208-2.262-.312-3.666-.312-2.236 0-3.978.39-5.226 1.17-1.248.728-1.872 2.028-1.872 3.9v2.496h12.792c.312.572.598 1.3.858 2.184.312.832.468 1.768.468 2.808 0 1.82-.416 3.146-1.248 3.978-.78.78-1.846 1.17-3.198 1.17h-8.97v24.726c-.52.156-1.352.312-2.496.468a24.262 24.262 0 01-3.432.234 19.06 19.06 0 01-3.12-.234c-.884-.156-1.638-.468-2.262-.936-.624-.468-1.118-1.092-1.482-1.872-.312-.832-.468-1.898-.468-3.198V51.092zm71.232 18.954c0 3.224-.494 6.11-1.482 8.658-.988 2.496-2.392 4.602-4.212 6.318-1.768 1.716-3.9 3.016-6.396 3.9-2.496.884-5.278 1.326-8.346 1.326-3.068 0-5.85-.468-8.346-1.404-2.496-.936-4.654-2.262-6.474-3.978-1.768-1.768-3.146-3.9-4.134-6.396-.988-2.496-1.482-5.304-1.482-8.424 0-3.068.494-5.85 1.482-8.346.988-2.496 2.366-4.602 4.134-6.318 1.82-1.768 3.978-3.12 6.474-4.056 2.496-.936 5.278-1.404 8.346-1.404 3.068 0 5.85.494 8.346 1.482 2.496.936 4.628 2.288 6.396 4.056 1.82 1.716 3.224 3.822 4.212 6.318.988 2.496 1.482 5.252 1.482 8.268zm-27.3 0c0 3.172.598 5.616 1.794 7.332 1.248 1.664 2.964 2.496 5.148 2.496 2.184 0 3.848-.858 4.992-2.574 1.196-1.716 1.794-4.134 1.794-7.254 0-3.12-.598-5.512-1.794-7.176-1.196-1.716-2.886-2.574-5.07-2.574s-3.874.858-5.07 2.574c-1.196 1.664-1.794 4.056-1.794 7.176zm47.419 18.876c-.52.156-1.352.312-2.496.468a24.262 24.262 0 01-3.432.234 19.06 19.06 0 01-3.12-.234c-.884-.156-1.638-.468-2.262-.936-.624-.468-1.118-1.092-1.482-1.872-.312-.832-.468-1.898-.468-3.198v-23.4c0-1.196.208-2.21.624-3.042a7.567 7.567 0 011.95-2.34c.832-.676 1.846-1.274 3.042-1.794a29.968 29.968 0 018.346-2.418 26.58 26.58 0 014.524-.39c2.499 0 4.469.494 5.929 1.482 1.46.936 2.18 2.496 2.18 4.68 0 .728-.1 1.456-.31 2.184-.21.676-.47 1.3-.78 1.872a36.927 36.927 0 00-6.707.624 46.337 46.337 0 00-3.12.702c-.936.208-1.742.468-2.418.78v26.598z" fill="#fff"/>
  <rect x="484" y="1" width="91" height="121" rx="10" fill="#92FF4F"/>
  <path d="M531.777 85.694c-.884 1.144-1.846 1.976-2.886 2.496-.988.52-2.21.78-3.666.78-2.288 0-4.238-.65-5.85-1.95a90.343 90.343 0 002.886-9.906c.78-3.432 1.43-6.526 1.95-9.282.884-.468 1.95-.858 3.198-1.17a13.314 13.314 0 013.744-.546c1.612 0 3.016.364 4.212 1.092 1.248.728 1.872 2.028 1.872 3.9 0 1.092-.156 2.314-.468 3.666a31.7 31.7 0 01-1.248 3.978 36.415 36.415 0 01-1.794 3.822c-.624 1.248-1.274 2.288-1.95 3.12zm-9.672-36.504c0-2.184.676-4.004 2.028-5.46 1.352-1.456 3.198-2.184 5.538-2.184 2.34 0 4.186.728 5.538 2.184 1.352 1.456 2.028 3.276 2.028 5.46s-.676 4.004-2.028 5.46c-1.352 1.456-3.198 2.184-5.538 2.184-2.34 0-4.186-.728-5.538-2.184-1.352-1.456-2.028-3.276-2.028-5.46z" fill="#fff"/>
  <rect x="660" y="2" width="118" height="121" rx="10" fill="#5685FF"/>
  <path d="M700.307 60.252c2.808 1.352 4.212 4.212 4.212 8.58v8.736c0 1.768.286 3.016.858 3.744.624.78 1.508 1.326 2.652 1.638.104.416.156.78.156 1.092v1.014c0 2.444-.572 4.134-1.716 5.07-1.144.988-2.626 1.482-4.446 1.482-2.86 0-5.2-.91-7.02-2.73-1.82-1.82-2.73-4.576-2.73-8.268v-8.19c0-2.288-.416-4.03-1.248-5.226-.78-1.196-2.054-2.028-3.822-2.496-.156-.624-.286-1.3-.39-2.028a18.284 18.284 0 01-.156-2.418c0-.832.052-1.612.156-2.34.104-.78.234-1.482.39-2.106 1.768-.468 3.042-1.3 3.822-2.496.832-1.196 1.248-2.938 1.248-5.226v-8.19c0-3.692.91-6.448 2.73-8.268 1.82-1.82 4.16-2.73 7.02-2.73 1.82 0 3.302.494 4.446 1.482 1.144.936 1.716 2.626 1.716 5.07v1.014c0 .312-.052.676-.156 1.092-1.144.312-2.028.858-2.652 1.638-.572.728-.858 1.976-.858 3.744v8.736c0 4.42-1.404 7.28-4.212 8.58zm36.141 0c-2.808-1.3-4.212-4.16-4.212-8.58v-8.736c0-1.768-.312-3.016-.936-3.744-.572-.78-1.43-1.326-2.574-1.638a4.584 4.584 0 01-.156-1.092v-1.014c0-2.444.572-4.134 1.716-5.07 1.144-.988 2.626-1.482 4.446-1.482 2.86 0 5.2.91 7.02 2.73 1.82 1.82 2.73 4.576 2.73 8.268v8.19c0 2.288.39 4.03 1.17 5.226.832 1.196 2.132 2.028 3.9 2.496.156.624.286 1.326.39 2.106.104.728.156 1.508.156 2.34 0 .832-.052 1.638-.156 2.418a20.097 20.097 0 01-.39 2.028c-1.768.468-3.068 1.3-3.9 2.496-.78 1.196-1.17 2.938-1.17 5.226v8.19c0 3.692-.91 6.448-2.73 8.268-1.82 1.82-4.16 2.73-7.02 2.73-1.82 0-3.302-.494-4.446-1.482-1.144-.936-1.716-2.626-1.716-5.07v-1.014c0-.312.052-.676.156-1.092 1.144-.312 2.002-.858 2.574-1.638.624-.728.936-1.976.936-3.744v-8.736c0-4.368 1.404-7.228 4.212-8.58z" fill="#fff"/>
  <rect x="188" width="212" height="121" rx="10" fill="#FFC656"/>
  <path d="M244.392 81.24c-3.068 0-5.928-.417-8.58-1.249-2.6-.884-4.888-2.184-6.864-3.9-1.924-1.716-3.458-3.874-4.602-6.474-1.092-2.6-1.638-5.642-1.638-9.126 0-3.432.546-6.37 1.638-8.814 1.144-2.496 2.626-4.524 4.446-6.084a16.855 16.855 0 016.24-3.51 22.55 22.55 0 017.176-1.17c2.756 0 5.252.416 7.488 1.248 2.288.832 4.238 1.976 5.85 3.432a14.627 14.627 0 013.822 5.226c.936 2.028 1.404 4.238 1.404 6.63 0 1.768-.494 3.12-1.482 4.056-.988.936-2.366 1.534-4.134 1.794l-19.266 2.886c.572 1.716 1.742 3.016 3.51 3.9 1.768.832 3.796 1.248 6.084 1.248 2.132 0 4.134-.26 6.006-.78 1.924-.572 3.484-1.222 4.68-1.95.832.52 1.534 1.248 2.106 2.184.572.936.858 1.924.858 2.964 0 2.34-1.092 4.082-3.276 5.226-1.664.884-3.536 1.482-5.616 1.794-2.08.312-4.03.468-5.85.468zm-2.184-30.655c-1.248 0-2.34.208-3.276.624-.884.416-1.612.962-2.184 1.638a6.651 6.651 0 00-1.326 2.184 9.484 9.484 0 00-.468 2.418l13.338-2.184c-.156-1.04-.728-2.08-1.716-3.12s-2.444-1.56-4.368-1.56zm38.831 29.328c-.572.104-1.43.234-2.574.39-1.092.208-2.21.312-3.354.312a19.06 19.06 0 01-3.12-.234c-.884-.156-1.638-.468-2.262-.936-.624-.468-1.118-1.092-1.482-1.872-.312-.832-.468-1.898-.468-3.198v-45.24a71.852 71.852 0 012.496-.39 19.149 19.149 0 013.432-.312c1.144 0 2.158.078 3.042.234.936.156 1.716.468 2.34.936.624.468 1.092 1.118 1.404 1.95.364.78.546 1.82.546 3.12v45.24zm40.737-11.232c0 3.952-1.482 7.046-4.446 9.282-2.964 2.236-7.332 3.354-13.104 3.354-2.184 0-4.212-.156-6.084-.468-1.872-.312-3.484-.78-4.836-1.404-1.3-.676-2.34-1.508-3.12-2.496-.728-.988-1.092-2.158-1.092-3.51 0-1.248.26-2.288.78-3.12.52-.884 1.144-1.612 1.872-2.184 1.508.832 3.224 1.586 5.148 2.262 1.976.624 4.238.936 6.786.936 1.612 0 2.834-.234 3.666-.702.884-.468 1.326-1.092 1.326-1.872 0-.728-.312-1.3-.936-1.716-.624-.416-1.664-.754-3.12-1.014l-2.34-.468c-4.524-.884-7.904-2.262-10.14-4.134-2.184-1.924-3.276-4.654-3.276-8.19 0-1.924.416-3.666 1.248-5.226.832-1.56 2.002-2.86 3.51-3.9s3.302-1.846 5.382-2.418c2.132-.572 4.472-.858 7.02-.858 1.924 0 3.718.156 5.382.468 1.716.26 3.198.676 4.446 1.248 1.248.572 2.236 1.326 2.964 2.262.728.884 1.092 1.95 1.092 3.198 0 1.196-.234 2.236-.702 3.12a6.57 6.57 0 01-1.638 2.106c-.416-.26-1.04-.52-1.872-.78a18.817 18.817 0 00-2.73-.78 28.636 28.636 0 00-3.042-.624 17.6 17.6 0 00-2.73-.234c-1.716 0-3.042.208-3.978.624-.936.364-1.404.962-1.404 1.794 0 .572.26 1.04.78 1.404.52.364 1.508.702 2.964 1.014l2.418.546c4.992 1.144 8.528 2.73 10.608 4.758 2.132 1.976 3.198 4.55 3.198 7.722zm27.227 12.558c-3.068 0-5.928-.416-8.58-1.248-2.6-.884-4.888-2.184-6.864-3.9-1.924-1.716-3.458-3.874-4.602-6.474-1.092-2.6-1.638-5.642-1.638-9.126 0-3.432.546-6.37 1.638-8.814 1.144-2.496 2.626-4.524 4.446-6.084a16.855 16.855 0 016.24-3.51 22.55 22.55 0 017.176-1.17c2.756 0 5.252.416 7.488 1.248 2.288.832 4.238 1.976 5.85 3.432a14.627 14.627 0 013.822 5.226c.936 2.028 1.404 4.238 1.404 6.63 0 1.768-.494 3.12-1.482 4.056-.988.936-2.366 1.534-4.134 1.794l-19.266 2.886c.572 1.716 1.742 3.016 3.51 3.9 1.768.832 3.796 1.248 6.084 1.248 2.132 0 4.134-.26 6.006-.78 1.924-.572 3.484-1.222 4.68-1.95.832.52 1.534 1.248 2.106 2.184.572.936.858 1.924.858 2.964 0 2.34-1.092 4.082-3.276 5.226-1.664.884-3.536 1.482-5.616 1.794-2.08.312-4.03.468-5.85.468zm-2.184-30.654c-1.248 0-2.34.208-3.276.624-.884.416-1.612.962-2.184 1.638a6.651 6.651 0 00-1.326 2.184 9.484 9.484 0 00-.468 2.418l13.338-2.184c-.156-1.04-.728-2.08-1.716-3.12s-2.444-1.56-4.368-1.56z" fill="#fff"/>
  <rect y="1" width="104" height="124.583" rx="10" fill="#FF5656"/>
  <path d="M27.784 37.562c0-1.976.65-3.64 1.95-4.992 1.352-1.352 3.12-2.028 5.304-2.028s3.926.676 5.226 2.028c1.352 1.352 2.028 3.016 2.028 4.992s-.676 3.64-2.028 4.992c-1.3 1.352-3.042 2.028-5.226 2.028s-3.952-.676-5.304-2.028c-1.3-1.352-1.95-3.016-1.95-4.992zm13.884 48.36c-.572.104-1.43.234-2.574.39-1.092.208-2.21.312-3.354.312a19.06 19.06 0 01-3.12-.234c-.884-.156-1.638-.468-2.262-.936-.624-.468-1.118-1.092-1.482-1.872-.312-.832-.468-1.898-.468-3.198V48.638a71.852 71.852 0 012.496-.39 19.149 19.149 0 013.432-.312c1.144 0 2.158.078 3.042.234.936.156 1.716.468 2.34.936.624.468 1.092 1.118 1.404 1.95.364.78.546 1.82.546 3.12v31.746zm8.988-37.83c0-2.652.442-4.914 1.326-6.786.936-1.924 2.184-3.484 3.744-4.68 1.56-1.248 3.38-2.158 5.46-2.73 2.132-.572 4.394-.858 6.786-.858 3.848 0 6.682.52 8.502 1.56 1.82.988 2.73 2.704 2.73 5.148 0 1.04-.234 1.976-.702 2.808-.416.832-.884 1.456-1.404 1.872a27.588 27.588 0 00-3.12-.624c-1.04-.208-2.262-.312-3.666-.312-2.236 0-3.978.39-5.226 1.17-1.248.728-1.872 2.028-1.872 3.9v2.496h12.792c.312.572.598 1.3.858 2.184.312.832.468 1.768.468 2.808 0 1.82-.416 3.146-1.248 3.978-.78.78-1.846 1.17-3.198 1.17h-8.97v24.726c-.52.156-1.352.312-2.496.468a24.262 24.262 0 01-3.432.234 19.06 19.06 0 01-3.12-.234c-.884-.156-1.638-.468-2.262-.936-.624-.468-1.118-1.092-1.482-1.872-.312-.832-.468-1.898-.468-3.198V48.092z" fill="#fff"/>
</svg>