<svg fill="none" xmlns="http://www.w3.org/2000/svg" viewBox="0 0 1298 615">
  <path d="M1252.3 200.135c4.27-3.501 4.59-9.522.7-13.448l-29.96-30.289c-3.88-3.926-10.49-4.271-14.77-.77l-5.84 4.791c-4.27 3.501-4.59 9.521-.7 13.448l29.96 30.288c3.88 3.927 10.5 4.271 14.77.771l5.84-4.791z" fill="#FF6073"/>
  <path d="M1227.42 126.824c-1.91 5.184.83 10.691 6.11 12.3l43.27 13.176c5.28 1.609 11.11-1.289 13.02-6.472l2.2-5.985c1.9-5.184-.83-10.69-6.12-12.299l-43.27-13.177c-5.28-1.609-11.11 1.289-13.01 6.472l-2.2 5.985z" fill="#FF60A3"/>
  <path d="M1231.47 89.494c1.4 5.34 6.92 8.713 12.32 7.534l44.44-9.711c5.4-1.18 8.63-6.464 7.22-11.804l-1.6-6.046c-1.4-5.34-6.92-8.714-12.32-7.535l-44.44 9.712c-5.4 1.179-8.63 6.463-7.22 11.804l1.6 6.046z" fill="#FC60FF"/>
  <path d="M1216.44 52.066c3.85 3.96 10.46 4.362 14.76.898l33.7-27.14c4.3-3.464 4.67-9.482.82-13.443l-5.06-5.21c-3.85-3.96-10.46-4.363-14.76-.9l-33.71 27.141c-4.3 3.464-4.67 9.483-.82 13.443l5.07 5.21z" fill="#E960FF"/>
  <path d="M110.149 179.387c-5.309 1.523-8.147 6.988-6.339 12.207l13.24 38.22c1.808 5.218 7.577 8.214 12.885 6.691l8.131-2.334c5.309-1.523 8.147-6.989 6.339-12.207l-13.24-38.22c-1.808-5.219-7.577-8.214-12.885-6.691l-8.131 2.334z" fill="#FF6060"/>
  <path d="M46.688 214.602c-4.272 3.5-4.586 9.521-.702 13.447l29.964 30.289c3.884 3.926 10.496 4.271 14.767.77l5.847-4.791c4.271-3.5 4.586-9.521.702-13.447L67.3 210.581c-3.884-3.926-10.495-4.271-14.767-.77l-5.846 4.791z" fill="#FF7360"/>
  <path d="M71.573 287.912c1.906-5.184-.832-10.69-6.115-12.299l-43.269-13.177c-5.283-1.609-11.11 1.289-13.016 6.473l-2.2 5.985c-1.906 5.183.832 10.69 6.115 12.299l43.269 13.176c5.283 1.609 11.11-1.288 13.016-6.472l2.2-5.985z" fill="#FF9960"/>
  <path d="M71.573 287.912c1.906-5.184-.832-10.69-6.115-12.299l-43.269-13.177c-5.283-1.609-11.11 1.289-13.016 6.473l-2.2 5.985c-1.906 5.183.832 10.69 6.115 12.299l43.269 13.176c5.283 1.609 11.11-1.288 13.016-6.472l2.2-5.985z" fill="#FF9960"/>
  <path d="M67.525 322.171c-1.409-5.34-6.925-8.713-12.32-7.534l-44.444 9.711c-5.396 1.179-8.628 6.464-7.22 11.804l1.596 6.046c1.408 5.341 6.924 8.714 12.32 7.535l44.444-9.712c5.395-1.179 8.627-6.463 7.219-11.804l-1.595-6.046z" fill="#FFBF60"/>
  <path d="M82.551 362.671c-3.85-3.961-10.457-4.363-14.758-.899l-33.705 27.14c-4.302 3.464-4.668 9.483-.819 13.443l5.066 5.211c3.85 3.96 10.457 4.362 14.758.899l33.705-27.141c4.302-3.464 4.668-9.482.819-13.442l-5.066-5.211z" fill="#FFDC60"/>
  <path d="M120.744 383.326c-5.498-.526-10.468 3.495-11.102 8.982l-4.584 39.693a9.767 9.767 0 008.808 10.887l8.616.824c5.498.526 10.468-3.495 11.102-8.982l4.584-39.694a9.767 9.767 0 00-8.808-10.886l-8.616-.824z" fill="#F9F25A"/>
  <path d="M176.984 386.046c-5.414 1.092-8.743 6.328-7.436 11.694l9.509 39.038c1.307 5.366 6.755 8.831 12.169 7.738l8.398-1.694c5.413-1.093 8.743-6.328 7.435-11.694l-9.508-39.038c-1.307-5.366-6.756-8.831-12.169-7.738l-8.398 1.694z" fill="#E9FF60"/>
  <path d="M238.638 369.198c-5.453.875-9.022 5.98-7.971 11.402l7.622 39.345c1.05 5.422 6.322 9.108 11.776 8.233l8.499-1.364c5.453-.875 9.022-5.98 7.972-11.402l-7.623-39.345c-1.05-5.422-6.322-9.108-11.775-8.233l-8.5 1.364z" fill="#C2FF60"/>
  <path d="M313.234 345.047a9.862 9.862 0 00-9.314 10.534l2.676 39.823c.37 5.51 5.14 9.729 10.655 9.422l8.66-.482a9.863 9.863 0 009.314-10.534l-2.676-39.823c-.371-5.51-5.141-9.729-10.655-9.422l-8.66.482z" fill="#93FF60"/>
  <path d="M382 361c-5.523 0-10 4.477-10 10v40c0 5.523 4.477 10 10 10h9c5.523 0 10-4.477 10-10v-40c0-5.523-4.477-10-10-10h-9z" fill="#60FF96"/>
  <path d="M449 344c-5.523 0-10 4.477-10 10v39c0 5.523 4.477 10 10 10h9c5.523 0 10-4.477 10-10v-39c0-5.523-4.477-10-10-10h-9z" fill="#60FFD9"/>
  <path d="M517 361c-5.523 0-10 4.477-10 10v40c0 5.523 4.477 10 10 10h9c5.523 0 10-4.477 10-10v-40c0-5.523-4.477-10-10-10h-9z" fill="#60F5FF"/>
  <path d="M584 344c-5.523 0-10 4.477-10 10v39c0 5.523 4.477 10 10 10h9c5.523 0 10-4.477 10-10v-39c0-5.523-4.477-10-10-10h-9z" fill="#60CFFF"/>
  <path d="M652 361c-5.523 0-10 4.477-10 10v40c0 5.523 4.477 10 10 10h9c5.523 0 10-4.477 10-10v-40c0-5.523-4.477-10-10-10h-9z" fill="#60A9FF"/>
  <path d="M719 344c-5.523 0-10 4.477-10 10v39c0 5.523 4.477 10 10 10h9c5.523 0 10-4.477 10-10v-39c0-5.523-4.477-10-10-10h-9z" fill="#6083FF"/>
  <path d="M787 361c-5.523 0-10 4.477-10 10v40c0 5.523 4.477 10 10 10h8c5.523 0 10-4.477 10-10v-40c0-5.523-4.477-10-10-10h-8zM854 344c-5.523 0-10 4.477-10 10v39c0 5.523 4.477 10 10 10h9c5.523 0 10-4.477 10-10v-39c0-5.523-4.477-10-10-10h-9z" fill="#6360FF"/>
  <path d="M922 361c-5.523 0-10 4.477-10 10v40c0 5.523 4.477 10 10 10h8c5.523 0 10-4.477 10-10v-40c0-5.523-4.477-10-10-10h-8z" fill="#9360FF"/>
  <path d="M989 406c-5.523 0-10-4.477-10-10v-40c0-5.523 4.477-10 10-10h9c5.52 0 10 4.477 10 10v40c0 5.523-4.48 10-10 10h-9z" fill="#CC60FF"/>
  <path d="M1057 421c-5.52 0-10-4.477-10-10v-40c0-5.523 4.48-10 10-10h8c5.52 0 10 4.477 10 10v40c0 5.523-4.48 10-10 10h-8z" fill="#E960FF"/>
  <path d="M1103.09 438.163c-4.55-3.123-5.39-9.104-1.87-13.358l26.85-32.425c3.52-4.254 10.07-5.171 14.62-2.047l6.42 4.399c4.55 3.124 5.39 9.105 1.87 13.359l-26.85 32.425c-3.52 4.254-10.07 5.17-14.62 2.046l-6.42-4.399z" fill="#FC60FF"/>
  <path d="M1120.26 475.611c-1.45-5.327 1.73-10.636 7.11-11.858l44.35-10.063c5.38-1.222 10.93 2.105 12.39 7.432l1.66 6.041c1.46 5.327-1.73 10.635-7.11 11.858l-44.35 10.062c-5.38 1.222-10.93-2.105-12.39-7.431l-1.66-6.041z" fill="#FF60A3"/>
  <path d="M1128.99 516.416c3.74-4.061 10.33-4.635 14.72-1.283l34.51 26.358c4.39 3.352 4.92 9.361 1.17 13.421l-4.88 5.294c-3.74 4.061-10.33 4.635-14.72 1.283l-34.51-26.358c-4.39-3.352-4.92-9.361-1.17-13.421l4.88-5.294z" fill="#FF6073"/>
  <path d="M1077.17 543.333c-5.31 1.523-8.15 6.989-6.34 12.207l13.24 38.22c1.81 5.219 7.58 8.214 12.88 6.691l8.14-2.334c5.3-1.523 8.14-6.989 6.33-12.207l-13.24-38.22c-1.8-5.219-7.57-8.214-12.88-6.691l-8.13 2.334z" fill="#FF7360"/>
  <path d="M1023.28 612.549a9.774 9.774 0 008.9-10.818l-4.2-39.725c-.58-5.492-5.51-9.554-11.01-9.071l-8.63.756a9.785 9.785 0 00-8.908 10.817l4.198 39.725c.59 5.492 5.52 9.554 11.02 9.072l8.63-.756z" fill="#FF9960"/>
  <path d="M1023.28 612.549a9.774 9.774 0 008.9-10.818l-4.2-39.725c-.58-5.492-5.51-9.554-11.01-9.071l-8.63.756a9.785 9.785 0 00-8.908 10.817l4.198 39.725c.59 5.492 5.52 9.554 11.02 9.072l8.63-.756z" fill="#FF9960"/>
  <path d="M940 613c5.523 0 10-4.477 10-10v-40c0-5.523-4.477-10-10-10h-8c-5.523 0-10 4.477-10 10v40c0 5.523 4.477 10 10 10h8z" fill="#FFBF60"/>
  <path d="M884.12 541.239c-4.389-3.352-10.982-2.778-14.725 1.283l-28.74 31.174c-3.744 4.06-3.22 10.069 1.169 13.421l6.077 4.642c4.39 3.352 10.982 2.778 14.726-1.283l28.74-31.174c3.743-4.06 3.22-10.069-1.169-13.421l-6.078-4.642z" fill="#FFDC60"/>
  <path d="M804.309 512.557c-5.483-.657-10.57 3.241-11.36 8.707l-5.726 39.584a9.71 9.71 0 008.498 11.086l8.579 1.028c5.483.657 10.57-3.241 11.36-8.707l5.726-39.583a9.71 9.71 0 00-8.497-11.087l-8.58-1.028z" fill="#F9F25A"/>
  <path d="M716.925 511.224c-5.296 1.566-8.084 7.052-6.227 12.253l13.61 38.123c1.856 5.202 7.655 8.149 12.951 6.582l8.1-2.395c5.296-1.566 8.084-7.052 6.227-12.254l-13.609-38.123c-1.857-5.201-7.656-8.148-12.952-6.582l-8.1 2.396z" fill="#E9FF60"/>
  <path d="M643.343 558.685c-3.328 4.408-2.231 10.355 2.452 13.284l37.272 23.315c4.682 2.929 11.176 1.731 14.504-2.677l4.194-5.554c3.328-4.407 2.23-10.354-2.452-13.283l-37.272-23.316c-4.683-2.929-11.176-1.73-14.504 2.677l-4.194 5.554z" fill="#C2FF60"/>
</svg>