<svg class="navEntry" viewBox="-60 0 1920 1080" fill="none" xmlns="http://www.w3.org/2000/svg">
      <g filter="url(#filter0_d)">
          <path d="M160.455 86c0 38.66-31.442 70-70.228 70C51.442 156 20 124.66 20 86s31.442-70 70.227-70c38.786 0 70.228 31.34 70.228 70z" fill="url(#paint0_linear)"/>
          <path d="M160.455 86c0 38.66-31.442 70-70.228 70C51.442 156 20 124.66 20 86s31.442-70 70.227-70c38.786 0 70.228 31.34 70.228 70z" stroke="url(#paint1_linear)"/>
          <path d="M140.947 86c0 27.921-22.708 50.556-50.72 50.556-28.011 0-50.72-22.635-50.72-50.556 0-27.921 22.709-50.556 50.72-50.556 28.012 0 50.72 22.635 50.72 50.556z" fill="#fff"/>
          <path d="M140.947 86c0 27.921-22.708 50.556-50.72 50.556-28.011 0-50.72-22.635-50.72-50.556 0-27.921 22.709-50.556 50.72-50.556 28.012 0 50.72 22.635 50.72 50.556z" stroke="url(#paint2_linear)"/>
          <path d="M117.538 86c0 15.034-12.227 27.222-27.31 27.222-15.084 0-27.311-12.188-27.311-27.222s12.227-27.222 27.31-27.222c15.084 0 27.311 12.188 27.311 27.222z" fill="url(#paint3_linear)"/>
          <path d="M117.538 86c0 15.034-12.227 27.222-27.31 27.222-15.084 0-27.311-12.188-27.311-27.222s12.227-27.222 27.31-27.222c15.084 0 27.311 12.188 27.311 27.222z" stroke="url(#paint4_linear)"/>
          <rect class="bar" x="95.689" y="79.778" width="130.311" height="12.444" rx="6.222" fill="#16FFBD"/>
      </g>
      <defs>
          <linearGradient id="paint0_linear" x1="90.227" y1="16" x2="90.227" y2="156" gradientUnits="userSpaceOnUse">
            <stop stop-color="#00FF85"/>
            <stop offset="1" stop-color="#0FF" stop-opacity=".792"/>
          </linearGradient>
          <linearGradient id="paint1_linear" x1="90.227" y1="16" x2="90.227" y2="156" gradientUnits="userSpaceOnUse">
            <stop stop-color="#00FFC2"/>
            <stop offset="1" stop-color="#00E0FF" stop-opacity=".755"/>
          </linearGradient>
          <linearGradient id="paint2_linear" x1="90.227" y1="35.444" x2="90.227" y2="136.556" gradientUnits="userSpaceOnUse">
            <stop stop-color="#00FFC2"/>
            <stop offset="1" stop-color="#00E0FF" stop-opacity=".755"/>
          </linearGradient>
          <linearGradient id="paint3_linear" x1="90.227" y1="58.778" x2="90.227" y2="113.222" gradientUnits="userSpaceOnUse">
            <stop stop-color="#00FF85"/>
            <stop offset="1" stop-color="#0FF" stop-opacity=".792"/>
          </linearGradient>
          <linearGradient id="paint4_linear" x1="90.227" y1="58.778" x2="90.227" y2="113.222" gradientUnits="userSpaceOnUse">
            <stop stop-color="#00FFC2"/>
            <stop offset="1" stop-color="#00E0FF" stop-opacity=".755"/>
          </linearGradient>
          <filter id="filter0_d" x="0" y="0" width="246" height="180" filterUnits="userSpaceOnUse" color-interpolation-filters="sRGB">
            <feFlood flood-opacity="0" result="BackgroundImageFix"/>
            <feColorMatrix in="SourceAlpha" values="0 0 0 0 0 0 0 0 0 0 0 0 0 0 0 0 0 0 127 0"/>
            <feOffset dy="4"/>
            <feGaussianBlur stdDeviation="10"/>
            <feColorMatrix values="0 0 0 0 0 0 0 0 0 0 0 0 0 0 0 0 0 0 0.4 0"/>
            <feBlend in2="BackgroundImageFix" result="effect1_dropShadow"/>
            <feBlend in="SourceGraphic" in2="effect1_dropShadow" result="shape"/>
          </filter>
      </defs>
    </svg>