<svg viewBox="-670 -150 1920 1080" fill="none" xmlns="http://www.w3.org/2000/svg">
    <rect width="28.912" height="24.872" rx="3" transform="matrix(1 0 0 -1 236.8 59.692)" fill="url(#paint0_linear)"/>
    <rect x="446.065" y="18.654" width="28.912" height="24.872" rx="3" fill="url(#paint1_linear)"/>
    <rect x="513.526" y="7.462" width="28.912" height="24.872" rx="3" fill="url(#paint2_linear)"/>
    <rect x="144.558" y="16.167" width="28.912" height="24.872" rx="3" fill="url(#paint3_linear)"/>
    <rect x="107.386" y="54.718" width="28.912" height="24.872" rx="3" fill="url(#paint4_linear)"/>
    <rect x="192.744" y="72.128" width="28.912" height="24.872" rx="3" fill="url(#paint5_linear)"/>
    <rect x="52.316" y="4.974" width="28.912" height="24.872" rx="3" fill="url(#paint6_linear)"/>
    <path d="M329.419 76.59a3 3 0 003 3h22.911a3 3 0 003-3V57.718a3 3 0 00-3-3h-22.911a3 3 0 00-3 3V76.59z" fill="url(#paint7_linear)"/>
    <rect x="498.381" y="59.692" width="28.912" height="24.872" rx="3" fill="url(#paint8_linear)"/>
    <rect x="399.256" y="72.128" width="28.912" height="24.872" rx="3" fill="url(#paint9_linear)"/>
    <path d="M0 5a5 5 0 015-5h582a5 5 0 015 5v1.333a5 5 0 01-5 5h-47.823a5 5 0 00-5 5V20a5 5 0 01-5 5H426.284a5 5 0 00-5 5v3.333a5 5 0 01-5 5h-52.642a5 5 0 00-5 5V55a5 5 0 01-5 5h-65.033a5 5 0 01-5-5V43.333a5 5 0 00-5-5h-78.111a5 5 0 01-5-5V30a5 5 0 00-5-5h-76.735a5 5 0 01-5-5v-3.667a5 5 0 00-5-5H5a5 5 0 01-5-5V5z" fill="url(#paint10_linear)"/>
    <defs>
    <linearGradient id="paint0_linear" x1="14.456" y1="0" x2="14.456" y2="24.872" gradientUnits="userSpaceOnUse">
        <stop stop-color="#40FFF4"/>
        <stop offset="1" stop-color="#9FFEB9" stop-opacity=".742"/>
    </linearGradient>
    <linearGradient id="paint1_linear" x1="460.521" y1="18.654" x2="460.521" y2="43.526" gradientUnits="userSpaceOnUse">
        <stop stop-color="#40FFF4"/>
        <stop offset="1" stop-color="#9FFEB9" stop-opacity=".742"/>
    </linearGradient>
    <linearGradient id="paint2_linear" x1="527.981" y1="7.462" x2="527.981" y2="32.333" gradientUnits="userSpaceOnUse">
        <stop stop-color="#40FFF4"/>
        <stop offset="1" stop-color="#9FFEB9" stop-opacity=".742"/>
    </linearGradient>
    <linearGradient id="paint3_linear" x1="159.014" y1="16.167" x2="159.014" y2="41.038" gradientUnits="userSpaceOnUse">
        <stop stop-color="#40FFF4"/>
        <stop offset="1" stop-color="#9FFEB9" stop-opacity=".742"/>
    </linearGradient>
    <linearGradient id="paint4_linear" x1="121.842" y1="54.718" x2="121.842" y2="79.59" gradientUnits="userSpaceOnUse">
        <stop stop-color="#40FFF4"/>
        <stop offset="1" stop-color="#9FFEB9" stop-opacity=".742"/>
    </linearGradient>
    <linearGradient id="paint5_linear" x1="207.2" y1="72.128" x2="207.2" y2="97" gradientUnits="userSpaceOnUse">
        <stop stop-color="#40FFF4"/>
        <stop offset="1" stop-color="#9FFEB9" stop-opacity=".742"/>
    </linearGradient>
    <linearGradient id="paint6_linear" x1="66.772" y1="4.974" x2="66.772" y2="29.846" gradientUnits="userSpaceOnUse">
        <stop stop-color="#40FFF4"/>
        <stop offset="1" stop-color="#9FFEB9" stop-opacity=".742"/>
    </linearGradient>
    <linearGradient id="paint7_linear" x1="345.966" y1="79.59" x2="345.966" y2="54.718" gradientUnits="userSpaceOnUse">
        <stop stop-color="#40FFF4"/>
        <stop offset="1" stop-color="#9FFEB9" stop-opacity=".742"/>
    </linearGradient>
    <linearGradient id="paint8_linear" x1="512.837" y1="59.692" x2="512.837" y2="84.564" gradientUnits="userSpaceOnUse">
        <stop stop-color="#40FFF4"/>
        <stop offset="1" stop-color="#9FFEB9" stop-opacity=".742"/>
    </linearGradient>
    <linearGradient id="paint9_linear" x1="413.712" y1="72.128" x2="413.712" y2="97" gradientUnits="userSpaceOnUse">
        <stop stop-color="#40FFF4"/>
        <stop offset="1" stop-color="#9FFEB9" stop-opacity=".742"/>
    </linearGradient>
    <linearGradient id="paint10_linear" x1="296" y1="0" x2="296" y2="60" gradientUnits="userSpaceOnUse">
        <stop stop-color="#40FFF4"/>
        <stop offset=".712" stop-color="#9FFEB9" stop-opacity=".915"/>
    </linearGradient>
    </defs>
</svg>