<svg fill="none" xmlns="http://www.w3.org/2000/svg" viewBox="0 0 592 93">
  <path d="M111.088 54.744a3 3 0 013-3H137a3 3 0 013 3v18.871a3 3 0 01-3 3h-22.912a3 3 0 01-3-3V54.744z" fill="url(#paint0_linear)"/>
  <rect x="193" y="67.744" width="28.912" height="24.872" rx="3" fill="url(#paint1_linear)"/>
  <rect x="493" y="51.744" width="28.912" height="24.872" rx="3" fill="url(#paint2_linear)"/>
  <rect x="400" y="63.744" width="28.912" height="24.872" rx="3" fill="url(#paint3_linear)"/>
  <path d="M5 0h582a5 5 0 015 5v1.333a5 5 0 01-5 5h-44.5V27.5a5 5 0 01-5 5h-19a5 5 0 01-5-5V25H475v13.5a5 5 0 01-5 5h-19a5 5 0 01-5-5V25h-19.716a5 5 0 00-5 5v3.333a5 5 0 01-5 5h-52.642a5 5 0 00-5 5V74.5a5 5 0 01-5 5H334.5a5 5 0 01-5-5V60h-40.891a5 5 0 01-5-5V43.333a5 5 0 00-5-5H265.5V54.5a5 5 0 01-5 5H242a5 5 0 01-5-5V38.333h-36.502a5 5 0 01-5-5V30a5 5 0 00-5-5H173.5v11a5 5 0 01-5 5h-19a5 5 0 01-5-5V25h-30.737a5 5 0 01-5-5v-3.667a5 5 0 00-5-5H83.5V26.5a5 5 0 01-5 5H59.381a5 5 0 01-5-5V11.333H5a5 5 0 01-5-5V5a5 5 0 015-5z" fill="url(#paint4_linear)"/>
  <defs>
    <linearGradient id="paint0_linear" x1="126" y1="51.744" x2="126" y2="76.744" gradientUnits="userSpaceOnUse">
      <stop stop-color="#40FFF4"/>
      <stop offset=".766" stop-color="#9FFEB9"/>
    </linearGradient>
    <linearGradient id="paint1_linear" x1="207.456" y1="67.744" x2="207.456" y2="92.615" gradientUnits="userSpaceOnUse">
      <stop stop-color="#40FFF4"/>
      <stop offset="1" stop-color="#9FFEB9" stop-opacity=".742"/>
    </linearGradient>
    <linearGradient id="paint2_linear" x1="507.456" y1="51.744" x2="507.456" y2="76.615" gradientUnits="userSpaceOnUse">
      <stop stop-color="#40FFF4"/>
      <stop offset="1" stop-color="#9FFEB9" stop-opacity=".742"/>
    </linearGradient>
    <linearGradient id="paint3_linear" x1="414.456" y1="63.744" x2="414.456" y2="88.615" gradientUnits="userSpaceOnUse">
      <stop stop-color="#40FFF4"/>
      <stop offset="1" stop-color="#9FFEB9" stop-opacity=".742"/>
    </linearGradient>
    <linearGradient id="paint4_linear" x1="296" y1="0" x2="296" y2="60" gradientUnits="userSpaceOnUse">
      <stop stop-color="#40FFF4"/>
      <stop offset=".682" stop-color="#9FFEB9" stop-opacity=".885"/>
    </linearGradient>
  </defs>
</svg>