<svg fill="none" xmlns="http://www.w3.org/2000/svg" viewBox="0 50 246.15 138.46">
    <g filter="url(#filter0_d)" fill="#FF6B6B">
        <path fill-rule="evenodd" clip-rule="evenodd" d="M165.747 58.742a6 6 0 00-6-6H14a6 6 0 00-6 6V189a6 6 0 006 6h51.968c4.692 0 7.738-5.24 5.86-9.54-5.94-13.6-11.986-36.935 16.459-36.935 28.501 0 22.802 23.427 17.099 37.016-1.802 4.293 1.246 9.459 5.902 9.459h48.459a6 6 0 006-6V58.742z"/>
        <path d="M209 120.47c0-34.665-29.951-24.588-40.006-20.229-2.037.883-3.247 2.914-3.247 5.134v30.453c0 2.231 1.221 4.27 3.274 5.145 10.082 4.3 39.979 14.131 39.979-20.503zM88.287 4c-35.264 0-22.3 34.624-17.353 45.508.916 2.015 2.948 3.234 5.162 3.234h24.313c2.211 0 4.242-1.216 5.159-3.228C110.529 38.636 123.557 4 88.287 4z"/>
    </g>
    <defs>
        <filter id="filter0_d" x="0" y="0" width="217" height="207" filterUnits="userSpaceOnUse" color-interpolation-filters="sRGB">
        <feFlood flood-opacity="0" result="BackgroundImageFix"/>
        <feColorMatrix in="SourceAlpha" values="0 0 0 0 0 0 0 0 0 0 0 0 0 0 0 0 0 0 127 0"/>
        <feOffset dy="4"/>
        <feGaussianBlur stdDeviation="4"/>
        <feColorMatrix values="0 0 0 0 0 0 0 0 0 0 0 0 0 0 0 0 0 0 0.35 0"/>
        <feBlend in2="BackgroundImageFix" result="effect1_dropShadow"/>
        <feBlend in="SourceGraphic" in2="effect1_dropShadow" result="shape"/>
        </filter>
    </defs>
</svg>