<svg fill="none" xmlns="http://www.w3.org/2000/svg" viewBox="0 0 159 206">
  <g filter="url(#filter0_d)" fill="#88FF75">
    <path d="M80.781 4c-31.766 0-20.36 33.923-15.816 44.945.874 2.12 2.96 3.414 5.252 3.414h21.066c2.29 0 4.374-1.292 5.25-3.409C101.09 37.935 112.553 4 80.78 4z"/>
    <path fill-rule="evenodd" clip-rule="evenodd" d="M8.001 58.36a6 6 0 016-6.001H145a6 6 0 016 6V187.5a6 6 0 01-6 6h-42.842c-4.553 0-7.59-4.947-5.95-9.194 5.194-13.452 10.533-36.916-15.427-36.916-25.91 0-20.25 23.375-14.842 36.839 1.71 4.256-1.327 9.271-5.913 9.271H14.002a6 6 0 01-6-6.002l.013-47.18L8 58.36zm39.223 63.121c0-34.253-26.931-24.476-36.154-20.124-1.934.913-3.055 2.883-3.055 5.021v33.94s39.21 22.493 39.21-18.837z"/>
  </g>
  <defs>
    <filter id="filter0_d" x=".001" y="0" width="158.999" height="205.5" filterUnits="userSpaceOnUse" color-interpolation-filters="sRGB">
      <feFlood flood-opacity="0" result="BackgroundImageFix"/>
      <feColorMatrix in="SourceAlpha" values="0 0 0 0 0 0 0 0 0 0 0 0 0 0 0 0 0 0 127 0"/>
      <feOffset dy="4"/>
      <feGaussianBlur stdDeviation="4"/>
      <feColorMatrix values="0 0 0 0 0 0 0 0 0 0 0 0 0 0 0 0 0 0 0.35 0"/>
      <feBlend in2="BackgroundImageFix" result="effect1_dropShadow"/>
      <feBlend in="SourceGraphic" in2="effect1_dropShadow" result="shape"/>
    </filter>
  </defs>
</svg>