<svg fill="none" xmlns="http://www.w3.org/2000/svg" viewBox="0 0 156 207">
  <g filter="url(#filter0_d)" fill="#C853FF">
    <path d="M79.73 4C49.003 4 59.643 30.73 64.16 39.836c.94 1.897 2.893 2.996 5.01 2.996H90.23c2.114 0 4.066-1.097 5.008-2.99C99.767 30.742 110.464 4 79.73 4zM79.73 195c-28.028 0-19.8-28.768-16.964-36.782.447-1.265 1.648-2.05 2.99-2.05h27.32c2.474 0 4.689 1.509 5.371 3.887C101.271 169.893 105.913 195 79.73 195z"/>
    <path fill-rule="evenodd" clip-rule="evenodd" d="M147.635 48.832a6 6 0 00-6-6H13.965A5.965 5.965 0 008 48.797V82.1c0 .913 2.046 1.382 2.898 1.055 8.924-3.426 35.39-11.258 35.39 16.334 0 27.617-26.513 19.59-35.414 16.117-.843-.329-2.874.135-2.874 1.04v33.552a5.97 5.97 0 005.97 5.97h127.665a6 6 0 006-6v-26.271c0-4.414-4.684-7.46-8.934-6.272-11.314 3.164-29.353 4.636-29.353-18.144 0-22.801 18.072-21.412 29.384-18.31 4.244 1.165 8.903-1.88 8.903-6.281V48.832z"/>
  </g>
  <defs>
    <filter id="filter0_d" x="0" y="0" width="155.635" height="207" filterUnits="userSpaceOnUse" color-interpolation-filters="sRGB">
      <feFlood flood-opacity="0" result="BackgroundImageFix"/>
      <feColorMatrix in="SourceAlpha" values="0 0 0 0 0 0 0 0 0 0 0 0 0 0 0 0 0 0 127 0"/>
      <feOffset dy="4"/>
      <feGaussianBlur stdDeviation="4"/>
      <feColorMatrix values="0 0 0 0 0 0 0 0 0 0 0 0 0 0 0 0 0 0 0.35 0"/>
      <feBlend in2="BackgroundImageFix" result="effect1_dropShadow"/>
      <feBlend in="SourceGraphic" in2="effect1_dropShadow" result="shape"/>
    </filter>
  </defs>
</svg>