<svg fill="none" xmlns="http://www.w3.org/2000/svg" viewBox="0 0 277 254">
  <g filter="url(#filter0_d)" fill="#FF6B6B">
    <path fill-rule="evenodd" clip-rule="evenodd" d="M212.835 70.736a6 6 0 00-6-6H14a6 6 0 00-6 6V236a6 6 0 006 6h72.237c4.742 0 7.78-5.335 5.716-9.605-7.956-16.46-18.355-48.306 20.3-48.306 38.717 0 28.831 31.948 21.182 48.385-1.985 4.266 1.055 9.526 5.761 9.526h67.639a6 6 0 006-6V70.736z"/>
    <path d="M269 149.13c0-44.233-40.784-30.003-52.844-24.828-2.074.889-3.321 2.944-3.321 5.2v39.589c0 2.267 1.26 4.33 3.349 5.212C228.28 179.412 269 193.329 269 149.13zM112.253 4C65.37 4 84.137 49.23 90.162 61.626c.951 1.958 2.941 3.11 5.118 3.11h33.856c2.174 0 4.162-1.15 5.115-3.103C140.291 49.245 159.145 4 112.253 4z"/>
  </g>
  <defs>
    <filter id="filter0_d" x="0" y="0" width="277" height="254" filterUnits="userSpaceOnUse" color-interpolation-filters="sRGB">
      <feFlood flood-opacity="0" result="BackgroundImageFix"/>
      <feColorMatrix in="SourceAlpha" values="0 0 0 0 0 0 0 0 0 0 0 0 0 0 0 0 0 0 127 0"/>
      <feOffset dy="4"/>
      <feGaussianBlur stdDeviation="4"/>
      <feColorMatrix values="0 0 0 0 0 0 0 0 0 0 0 0 0 0 0 0 0 0 0.35 0"/>
      <feBlend in2="BackgroundImageFix" result="effect1_dropShadow"/>
      <feBlend in="SourceGraphic" in2="effect1_dropShadow" result="shape"/>
    </filter>
  </defs>
</svg>